<svg width="108" height="53" viewBox="0 0 108 53" fill="none" xmlns="http://www.w3.org/2000/svg">
<path d="M93.8773 38.9465C91.9107 38.291 92.1456 35.5715 93.1958 33.6762M93.1958 33.6762C93.3964 33.3141 93.579 33.0568 93.8773 32.7003C97.0949 28.8537 105.199 31.7243 105.979 36.9945C106.83 42.7349 107.657 47.2548 101.685 49.8774C99.6018 50.7923 89.276 49.681 77.5 49.8774C70.6784 49.9912 64.0345 51.6918 56.5 51.5C48.6857 51.3011 44.8378 50.0461 36.5 49.8774C31.1136 49.7684 26.2314 50.967 21 51C16.9795 51.0253 12.5482 49.8774 8.77241 49.8774C-3.28674 49.8774 1.35502 35.2378 5.0637 36.9945M93.1958 33.6762C91.2107 26.7794 83.6881 13.376 69.478 14.9375C67.8442 15.0709 66.4895 15.4378 65.3789 15.9662M62.451 26.8444C60.3469 24.9022 59.9875 18.5311 65.3789 15.9662M65.3789 15.9662C65.1186 12.5002 64.8638 8.54588 58.1567 3.81143C51.5201 -0.873242 33.5621 -0.87325 27.3159 12.9856C25.6242 16.7392 25.2569 19.7634 25.6627 22.1597M32.7814 29.7723C30.1992 29.1268 26.4555 26.8416 25.6627 22.1597M25.6627 22.1597C20.6832 20.9886 12.4811 17.2799 5.06371 26.8444C2.85546 29.6919 3.79494 34.9938 5.0637 36.9945M8.77241 38.9465C7.30845 38.9465 6.33247 38.9953 5.0637 36.9945" stroke="black"/>
<path d="M28 37.0795C28.6592 39.0544 32.0539 42.4658 40.3595 40.3112M59.6404 31.1545C62.4419 32.4113 68.8359 33.74 72 29M34.5 11C35.3333 8.83333 38.8 4.9 46 6.5M100.5 35C101.667 35.6667 103.9 37.7 103.5 40.5M6.49999 32.5C6.33332 30.6667 6.99999 26.6 11 25M64.5 24.5C63.8333 22.8333 63.4 19.2 67 18" stroke="black"/>
</svg>
