<svg width="39" height="39" viewBox="0 0 39 39" fill="none" xmlns="http://www.w3.org/2000/svg">
<circle cx="19.5" cy="19.5" r="19.25" stroke="black" stroke-width="0.5"/>
<mask id="mask0_4_227" style="mask-type:alpha" maskUnits="userSpaceOnUse" x="0" y="0" width="39" height="39">
<circle cx="19.5" cy="19.5" r="19.5" fill="#C4C4C4"/>
</mask>
<g mask="url(#mask0_4_227)">
<path d="M19.5 0.230835L19.3846 39.0001" stroke="black" stroke-width="0.5"/>
<path d="M27.6923 -0.230835C27.6923 -0.230835 33.1154 6.46147 33.1154 20.0769C33.1154 29.6659 27.6923 38.8846 27.6923 38.8846" stroke="black" stroke-width="0.5"/>
<path d="M27.8077 -0.230835C27.8077 -0.230835 37.7308 6.92301 37.7308 20.5384C37.7308 30.1274 29.7692 39.3461 29.7692 39.3461" stroke="black" stroke-width="0.5"/>
<path d="M22.1538 -0.230835C22.1538 -0.230835 26.805 5.42301 26.6538 20.3076C26.5261 32.8845 22.1538 40.9615 22.1538 40.9615" stroke="black" stroke-width="0.5"/>
<path d="M11.1923 -0.230835C11.1923 -0.230835 5.76923 6.46147 5.76923 20.0769C5.76923 29.6659 11.1923 38.8846 11.1923 38.8846" stroke="black" stroke-width="0.5"/>
<path d="M10.6154 0.461548C10.6154 0.461548 1.15383 6.92309 1.15383 20.5385C1.15383 30.1275 9.57691 39.4615 9.57691 39.4615" stroke="black" stroke-width="0.5"/>
<path d="M16.7308 -0.230835C16.7308 -0.230835 12.0796 5.42301 12.2308 20.3076C12.3585 32.8845 16.7308 40.9615 16.7308 40.9615" stroke="black" stroke-width="0.5"/>
</g>
<mask id="mask1_4_227" style="mask-type:alpha" maskUnits="userSpaceOnUse" x="0" y="0" width="39" height="39">
<circle cx="19.5" cy="19.5" r="19.5" transform="rotate(-90 19.5 19.5)" fill="#C4C4C4"/>
</mask>
<g mask="url(#mask1_4_227)">
<path d="M0.230759 19.5L39 19.6154" stroke="black" stroke-width="0.5"/>
<path d="M-0.230759 11.3076C-0.230759 11.3076 6.46155 5.88454 20.0769 5.88454C29.666 5.88454 38.8846 11.3076 38.8846 11.3076" stroke="black" stroke-width="0.5"/>
<path d="M-0.230759 11.1923C-0.230759 11.1923 6.92309 1.26918 20.5385 1.26918C30.1275 1.26918 39.3462 9.23072 39.3462 9.23072" stroke="black" stroke-width="0.5"/>
<path d="M-0.230759 16.8462C-0.230759 16.8462 5.42309 12.195 20.3077 12.3462C32.8846 12.4739 40.9615 16.8462 40.9615 16.8462" stroke="black" stroke-width="0.5"/>
<path d="M-0.230759 27.8077C-0.230759 27.8077 6.46155 33.2308 20.0769 33.2308C29.666 33.2308 38.8846 27.8077 38.8846 27.8077" stroke="black" stroke-width="0.5"/>
<path d="M0.461533 28.3846C0.461533 28.3846 6.92307 37.8462 20.5385 37.8462C30.1275 37.8462 39.4615 29.4231 39.4615 29.4231" stroke="black" stroke-width="0.5"/>
<path d="M-0.230759 22.2692C-0.230759 22.2692 5.42309 26.9203 20.3077 26.7692C32.8846 26.6414 40.9615 22.2692 40.9615 22.2692" stroke="black" stroke-width="0.5"/>
</g>
</svg>
