<svg width="599" height="321" viewBox="0 0 599 321" fill="none" xmlns="http://www.w3.org/2000/svg">
<line x1="6.5" y1="2.18557e-08" x2="6.49999" y2="316" stroke="black"/>
<line x1="6" y1="315.5" x2="599" y2="315.5" stroke="black"/>
<path d="M214.059 195.572V196H208.861V195.596L211.656 192.391C212.008 191.988 212.293 191.629 212.512 191.312C212.73 190.992 212.891 190.699 212.992 190.434C213.094 190.168 213.145 189.912 213.145 189.666C213.145 189.287 213.07 188.957 212.922 188.676C212.773 188.395 212.553 188.176 212.26 188.02C211.967 187.859 211.605 187.779 211.176 187.779C210.777 187.779 210.422 187.871 210.109 188.055C209.801 188.238 209.559 188.49 209.383 188.811C209.211 189.127 209.125 189.488 209.125 189.895H208.662C208.662 189.43 208.766 189.006 208.973 188.623C209.18 188.236 209.471 187.928 209.846 187.697C210.225 187.467 210.668 187.352 211.176 187.352C211.676 187.352 212.107 187.441 212.471 187.621C212.834 187.797 213.115 188.055 213.314 188.395C213.514 188.734 213.613 189.15 213.613 189.643C213.613 189.9 213.564 190.162 213.467 190.428C213.373 190.693 213.242 190.959 213.074 191.225C212.91 191.486 212.725 191.746 212.518 192.004C212.314 192.262 212.104 192.516 211.885 192.766L209.453 195.572H214.059ZM215.465 195.654C215.465 195.549 215.502 195.459 215.576 195.385C215.65 195.307 215.744 195.268 215.857 195.268C215.975 195.268 216.07 195.305 216.145 195.379C216.219 195.453 216.256 195.545 216.256 195.654C216.256 195.764 216.219 195.855 216.145 195.93C216.07 196.004 215.975 196.041 215.857 196.041C215.744 196.041 215.65 196.004 215.576 195.93C215.502 195.855 215.465 195.764 215.465 195.654ZM221.248 187.439V196H220.779V188.043L218.383 188.939V188.471L221.16 187.439H221.248ZM225.355 187V196H224.887V187H225.355ZM229.393 189.66L226.311 192.59L225.221 193.58L225.109 193.17L226.064 192.215L228.771 189.66H229.393ZM229.018 196L226.135 192.543L226.41 192.156L229.592 196H229.018ZM231.057 191.002V196H230.588V189.66H231.045L231.057 191.002ZM230.98 192.344L230.746 192.074C230.777 191.738 230.855 191.418 230.98 191.113C231.109 190.809 231.279 190.539 231.49 190.305C231.705 190.07 231.957 189.885 232.246 189.748C232.539 189.611 232.865 189.543 233.225 189.543C233.541 189.543 233.824 189.586 234.074 189.672C234.328 189.754 234.543 189.885 234.719 190.064C234.895 190.24 235.029 190.471 235.123 190.756C235.217 191.041 235.264 191.383 235.264 191.781V196H234.795V191.793C234.795 191.316 234.725 190.947 234.584 190.686C234.443 190.424 234.248 190.24 233.998 190.135C233.748 190.025 233.461 189.971 233.137 189.971C232.754 189.971 232.428 190.055 232.158 190.223C231.889 190.387 231.668 190.596 231.496 190.85C231.328 191.1 231.203 191.359 231.121 191.629C231.039 191.898 230.992 192.137 230.98 192.344ZM235.258 191.822L234.941 191.711C234.973 191.426 235.053 191.154 235.182 190.896C235.314 190.635 235.488 190.404 235.703 190.205C235.918 190.002 236.17 189.842 236.459 189.725C236.752 189.604 237.076 189.543 237.432 189.543C237.756 189.543 238.045 189.588 238.299 189.678C238.557 189.764 238.771 189.902 238.943 190.094C239.119 190.281 239.254 190.523 239.348 190.82C239.441 191.113 239.488 191.469 239.488 191.887V196H239.02V191.881C239.02 191.381 238.949 190.992 238.809 190.715C238.668 190.438 238.473 190.244 238.223 190.135C237.973 190.021 237.684 189.967 237.355 189.971C237.008 189.975 236.705 190.039 236.447 190.164C236.189 190.289 235.975 190.447 235.803 190.639C235.631 190.83 235.5 191.031 235.41 191.242C235.32 191.449 235.27 191.643 235.258 191.822Z" fill="black"/>
<path d="M127.059 181.572V182H121.861V181.596L124.656 178.391C125.008 177.988 125.293 177.629 125.512 177.312C125.73 176.992 125.891 176.699 125.992 176.434C126.094 176.168 126.145 175.912 126.145 175.666C126.145 175.287 126.07 174.957 125.922 174.676C125.773 174.395 125.553 174.176 125.26 174.02C124.967 173.859 124.605 173.779 124.176 173.779C123.777 173.779 123.422 173.871 123.109 174.055C122.801 174.238 122.559 174.49 122.383 174.811C122.211 175.127 122.125 175.488 122.125 175.895H121.662C121.662 175.43 121.766 175.006 121.973 174.623C122.18 174.236 122.471 173.928 122.846 173.697C123.225 173.467 123.668 173.352 124.176 173.352C124.676 173.352 125.107 173.441 125.471 173.621C125.834 173.797 126.115 174.055 126.314 174.395C126.514 174.734 126.613 175.15 126.613 175.643C126.613 175.9 126.564 176.162 126.467 176.428C126.373 176.693 126.242 176.959 126.074 177.225C125.91 177.486 125.725 177.746 125.518 178.004C125.314 178.262 125.104 178.516 124.885 178.766L122.453 181.572H127.059ZM128.465 181.654C128.465 181.549 128.502 181.459 128.576 181.385C128.65 181.307 128.744 181.268 128.857 181.268C128.975 181.268 129.07 181.305 129.145 181.379C129.219 181.453 129.256 181.545 129.256 181.654C129.256 181.764 129.219 181.855 129.145 181.93C129.07 182.004 128.975 182.041 128.857 182.041C128.744 182.041 128.65 182.004 128.576 181.93C128.502 181.855 128.465 181.764 128.465 181.654ZM132.719 177.43H133.393C133.869 177.43 134.27 177.35 134.594 177.189C134.918 177.025 135.162 176.811 135.326 176.545C135.49 176.275 135.572 175.98 135.572 175.66C135.572 175.309 135.502 174.99 135.361 174.705C135.225 174.42 135.01 174.195 134.717 174.031C134.428 173.863 134.055 173.779 133.598 173.779C133.211 173.779 132.861 173.857 132.549 174.014C132.236 174.17 131.986 174.393 131.799 174.682C131.615 174.967 131.523 175.309 131.523 175.707H131.061C131.061 175.23 131.174 174.816 131.4 174.465C131.627 174.109 131.932 173.836 132.314 173.645C132.701 173.449 133.129 173.352 133.598 173.352C134.094 173.352 134.523 173.445 134.887 173.633C135.254 173.816 135.537 174.082 135.736 174.43C135.939 174.777 136.041 175.195 136.041 175.684C136.041 175.961 135.98 176.227 135.859 176.48C135.742 176.734 135.57 176.961 135.344 177.16C135.121 177.355 134.85 177.512 134.529 177.629C134.209 177.742 133.846 177.799 133.439 177.799H132.719V177.43ZM132.719 177.869V177.512H133.439C133.893 177.512 134.291 177.562 134.635 177.664C134.979 177.766 135.268 177.914 135.502 178.109C135.74 178.301 135.918 178.533 136.035 178.807C136.156 179.076 136.217 179.379 136.217 179.715C136.217 180.098 136.152 180.438 136.023 180.734C135.898 181.031 135.721 181.283 135.49 181.49C135.26 181.697 134.986 181.854 134.67 181.959C134.357 182.064 134.016 182.117 133.645 182.117C133.312 182.117 132.984 182.068 132.66 181.971C132.336 181.869 132.041 181.717 131.775 181.514C131.51 181.311 131.297 181.055 131.137 180.746C130.977 180.434 130.896 180.068 130.896 179.65H131.365C131.365 180.049 131.463 180.4 131.658 180.705C131.857 181.01 132.129 181.25 132.473 181.426C132.816 181.602 133.207 181.689 133.645 181.689C134.09 181.689 134.469 181.613 134.781 181.461C135.098 181.305 135.338 181.082 135.502 180.793C135.666 180.5 135.748 180.148 135.748 179.738C135.748 179.297 135.648 178.939 135.449 178.666C135.25 178.389 134.973 178.188 134.617 178.062C134.262 177.934 133.854 177.869 133.393 177.869H132.719ZM138.355 173V182H137.887V173H138.355ZM142.393 175.66L139.311 178.59L138.221 179.58L138.109 179.17L139.064 178.215L141.771 175.66H142.393ZM142.018 182L139.135 178.543L139.41 178.156L142.592 182H142.018ZM144.057 177.002V182H143.588V175.66H144.045L144.057 177.002ZM143.98 178.344L143.746 178.074C143.777 177.738 143.855 177.418 143.98 177.113C144.109 176.809 144.279 176.539 144.49 176.305C144.705 176.07 144.957 175.885 145.246 175.748C145.539 175.611 145.865 175.543 146.225 175.543C146.541 175.543 146.824 175.586 147.074 175.672C147.328 175.754 147.543 175.885 147.719 176.064C147.895 176.24 148.029 176.471 148.123 176.756C148.217 177.041 148.264 177.383 148.264 177.781V182H147.795V177.793C147.795 177.316 147.725 176.947 147.584 176.686C147.443 176.424 147.248 176.24 146.998 176.135C146.748 176.025 146.461 175.971 146.137 175.971C145.754 175.971 145.428 176.055 145.158 176.223C144.889 176.387 144.668 176.596 144.496 176.85C144.328 177.1 144.203 177.359 144.121 177.629C144.039 177.898 143.992 178.137 143.98 178.344ZM148.258 177.822L147.941 177.711C147.973 177.426 148.053 177.154 148.182 176.896C148.314 176.635 148.488 176.404 148.703 176.205C148.918 176.002 149.17 175.842 149.459 175.725C149.752 175.604 150.076 175.543 150.432 175.543C150.756 175.543 151.045 175.588 151.299 175.678C151.557 175.764 151.771 175.902 151.943 176.094C152.119 176.281 152.254 176.523 152.348 176.82C152.441 177.113 152.488 177.469 152.488 177.887V182H152.02V177.881C152.02 177.381 151.949 176.992 151.809 176.715C151.668 176.438 151.473 176.244 151.223 176.135C150.973 176.021 150.684 175.967 150.355 175.971C150.008 175.975 149.705 176.039 149.447 176.164C149.189 176.289 148.975 176.447 148.803 176.639C148.631 176.83 148.5 177.031 148.41 177.242C148.32 177.449 148.27 177.643 148.258 177.822Z" fill="black"/>
<path d="M61.6875 103.688L61.3242 103.57L61.7285 99.4688H65.9355V99.9141H62.1387L61.8105 103.119C61.9551 103.006 62.1816 102.891 62.4902 102.773C62.7988 102.652 63.1445 102.592 63.5273 102.592C63.9023 102.592 64.2422 102.654 64.5469 102.779C64.8555 102.9 65.123 103.078 65.3496 103.312C65.5762 103.543 65.75 103.824 65.8711 104.156C65.9922 104.484 66.0527 104.859 66.0527 105.281C66.0527 105.691 66.0059 106.068 65.9121 106.412C65.8184 106.756 65.6719 107.057 65.4727 107.314C65.2773 107.568 65.0234 107.766 64.7109 107.906C64.3984 108.047 64.0254 108.117 63.5918 108.117C63.2559 108.117 62.9395 108.07 62.6426 107.977C62.3496 107.879 62.0879 107.732 61.8574 107.537C61.6309 107.342 61.4453 107.096 61.3008 106.799C61.1562 106.502 61.0684 106.154 61.0371 105.756H61.4941C61.5371 106.174 61.6445 106.527 61.8164 106.816C61.9922 107.102 62.2285 107.318 62.5254 107.467C62.8262 107.615 63.1816 107.689 63.5918 107.689C63.9238 107.689 64.2129 107.639 64.459 107.537C64.709 107.432 64.916 107.277 65.0801 107.074C65.248 106.871 65.373 106.621 65.4551 106.324C65.5371 106.023 65.5781 105.68 65.5781 105.293C65.5781 104.969 65.5332 104.672 65.4434 104.402C65.3535 104.129 65.2188 103.891 65.0391 103.688C64.8594 103.48 64.6387 103.32 64.377 103.207C64.1191 103.094 63.8223 103.037 63.4863 103.037C63.0527 103.037 62.6992 103.096 62.4258 103.213C62.1523 103.33 61.9062 103.488 61.6875 103.688ZM67.4648 107.654C67.4648 107.549 67.502 107.459 67.5762 107.385C67.6504 107.307 67.7441 107.268 67.8574 107.268C67.9746 107.268 68.0703 107.305 68.1445 107.379C68.2188 107.453 68.2559 107.545 68.2559 107.654C68.2559 107.764 68.2188 107.855 68.1445 107.93C68.0703 108.004 67.9746 108.041 67.8574 108.041C67.7441 108.041 67.6504 108.004 67.5762 107.93C67.502 107.855 67.4648 107.764 67.4648 107.654ZM75.1875 102.973V104.49C75.1875 105.072 75.1309 105.59 75.0176 106.043C74.9043 106.492 74.7383 106.871 74.5195 107.18C74.3008 107.488 74.0312 107.723 73.7109 107.883C73.3945 108.039 73.0293 108.117 72.6152 108.117C72.2871 108.117 71.9883 108.066 71.7188 107.965C71.4492 107.863 71.209 107.713 70.998 107.514C70.7871 107.314 70.6094 107.068 70.4648 106.775C70.3203 106.482 70.2109 106.145 70.1367 105.762C70.0625 105.379 70.0254 104.955 70.0254 104.49V102.973C70.0254 102.383 70.082 101.865 70.1953 101.42C70.3125 100.971 70.4805 100.592 70.6992 100.283C70.918 99.9746 71.1875 99.7422 71.5078 99.5859C71.8281 99.4258 72.1934 99.3457 72.6035 99.3457C72.9316 99.3457 73.2305 99.3965 73.5 99.498C73.7734 99.5996 74.0137 99.75 74.2207 99.9492C74.4316 100.148 74.6074 100.395 74.748 100.688C74.8926 100.98 75.002 101.318 75.0762 101.701C75.1504 102.08 75.1875 102.504 75.1875 102.973ZM74.7188 104.514V102.932C74.7188 102.545 74.6895 102.188 74.6309 101.859C74.5762 101.531 74.4922 101.238 74.3789 100.98C74.2695 100.723 74.1289 100.504 73.957 100.324C73.7891 100.145 73.5918 100.008 73.3652 99.9141C73.1387 99.8203 72.8848 99.7734 72.6035 99.7734C72.252 99.7734 71.9434 99.8477 71.6777 99.9961C71.4121 100.141 71.1914 100.35 71.0156 100.623C70.8438 100.896 70.7129 101.229 70.623 101.619C70.5371 102.01 70.4941 102.447 70.4941 102.932V104.514C70.4941 104.896 70.5215 105.252 70.5762 105.58C70.6309 105.904 70.7148 106.197 70.8281 106.459C70.9414 106.721 71.082 106.943 71.25 107.127C71.4219 107.307 71.6211 107.445 71.8477 107.543C72.0742 107.641 72.3301 107.689 72.6152 107.689C72.9707 107.689 73.2793 107.615 73.541 107.467C73.8066 107.314 74.0254 107.1 74.1973 106.822C74.373 106.545 74.5039 106.211 74.5898 105.82C74.6758 105.43 74.7188 104.994 74.7188 104.514ZM77.3555 99V108H76.8867V99H77.3555ZM81.3926 101.66L78.3105 104.59L77.2207 105.58L77.1094 105.17L78.0645 104.215L80.7715 101.66H81.3926ZM81.0176 108L78.1348 104.543L78.4102 104.156L81.5918 108H81.0176ZM83.0566 103.002V108H82.5879V101.66H83.0449L83.0566 103.002ZM82.9805 104.344L82.7461 104.074C82.7773 103.738 82.8555 103.418 82.9805 103.113C83.1094 102.809 83.2793 102.539 83.4902 102.305C83.7051 102.07 83.957 101.885 84.2461 101.748C84.5391 101.611 84.8652 101.543 85.2246 101.543C85.541 101.543 85.8242 101.586 86.0742 101.672C86.3281 101.754 86.543 101.885 86.7188 102.064C86.8945 102.24 87.0293 102.471 87.123 102.756C87.2168 103.041 87.2637 103.383 87.2637 103.781V108H86.7949V103.793C86.7949 103.316 86.7246 102.947 86.584 102.686C86.4434 102.424 86.248 102.24 85.998 102.135C85.748 102.025 85.4609 101.971 85.1367 101.971C84.7539 101.971 84.4277 102.055 84.1582 102.223C83.8887 102.387 83.668 102.596 83.4961 102.85C83.3281 103.1 83.2031 103.359 83.1211 103.629C83.0391 103.898 82.9922 104.137 82.9805 104.344ZM87.2578 103.822L86.9414 103.711C86.9727 103.426 87.0527 103.154 87.1816 102.896C87.3145 102.635 87.4883 102.404 87.7031 102.205C87.918 102.002 88.1699 101.842 88.459 101.725C88.752 101.604 89.0762 101.543 89.4316 101.543C89.7559 101.543 90.0449 101.588 90.2988 101.678C90.5566 101.764 90.7715 101.902 90.9434 102.094C91.1191 102.281 91.2539 102.523 91.3477 102.82C91.4414 103.113 91.4883 103.469 91.4883 103.887V108H91.0195V103.881C91.0195 103.381 90.9492 102.992 90.8086 102.715C90.668 102.438 90.4727 102.244 90.2227 102.135C89.9727 102.021 89.6836 101.967 89.3555 101.971C89.0078 101.975 88.7051 102.039 88.4473 102.164C88.1895 102.289 87.9746 102.447 87.8027 102.639C87.6309 102.83 87.5 103.031 87.4102 103.242C87.3203 103.449 87.2695 103.643 87.2578 103.822Z" fill="black"/>
<path d="M312.688 102.688L312.324 102.57L312.729 98.4688H316.936V98.9141H313.139L312.811 102.119C312.955 102.006 313.182 101.891 313.49 101.773C313.799 101.652 314.145 101.592 314.527 101.592C314.902 101.592 315.242 101.654 315.547 101.779C315.855 101.9 316.123 102.078 316.35 102.312C316.576 102.543 316.75 102.824 316.871 103.156C316.992 103.484 317.053 103.859 317.053 104.281C317.053 104.691 317.006 105.068 316.912 105.412C316.818 105.756 316.672 106.057 316.473 106.314C316.277 106.568 316.023 106.766 315.711 106.906C315.398 107.047 315.025 107.117 314.592 107.117C314.256 107.117 313.939 107.07 313.643 106.977C313.35 106.879 313.088 106.732 312.857 106.537C312.631 106.342 312.445 106.096 312.301 105.799C312.156 105.502 312.068 105.154 312.037 104.756H312.494C312.537 105.174 312.645 105.527 312.816 105.816C312.992 106.102 313.229 106.318 313.525 106.467C313.826 106.615 314.182 106.689 314.592 106.689C314.924 106.689 315.213 106.639 315.459 106.537C315.709 106.432 315.916 106.277 316.08 106.074C316.248 105.871 316.373 105.621 316.455 105.324C316.537 105.023 316.578 104.68 316.578 104.293C316.578 103.969 316.533 103.672 316.443 103.402C316.354 103.129 316.219 102.891 316.039 102.688C315.859 102.48 315.639 102.32 315.377 102.207C315.119 102.094 314.822 102.037 314.486 102.037C314.053 102.037 313.699 102.096 313.426 102.213C313.152 102.33 312.906 102.488 312.688 102.688ZM318.465 106.654C318.465 106.549 318.502 106.459 318.576 106.385C318.65 106.307 318.744 106.268 318.857 106.268C318.975 106.268 319.07 106.305 319.145 106.379C319.219 106.453 319.256 106.545 319.256 106.654C319.256 106.764 319.219 106.855 319.145 106.93C319.07 107.004 318.975 107.041 318.857 107.041C318.744 107.041 318.65 107.004 318.576 106.93C318.502 106.855 318.465 106.764 318.465 106.654ZM324.248 98.4395V107H323.779V99.043L321.383 99.9395V99.4707L324.16 98.4395H324.248ZM328.355 98V107H327.887V98H328.355ZM332.393 100.66L329.311 103.59L328.221 104.58L328.109 104.17L329.064 103.215L331.771 100.66H332.393ZM332.018 107L329.135 103.543L329.41 103.156L332.592 107H332.018ZM334.057 102.002V107H333.588V100.66H334.045L334.057 102.002ZM333.98 103.344L333.746 103.074C333.777 102.738 333.855 102.418 333.98 102.113C334.109 101.809 334.279 101.539 334.49 101.305C334.705 101.07 334.957 100.885 335.246 100.748C335.539 100.611 335.865 100.543 336.225 100.543C336.541 100.543 336.824 100.586 337.074 100.672C337.328 100.754 337.543 100.885 337.719 101.064C337.895 101.24 338.029 101.471 338.123 101.756C338.217 102.041 338.264 102.383 338.264 102.781V107H337.795V102.793C337.795 102.316 337.725 101.947 337.584 101.686C337.443 101.424 337.248 101.24 336.998 101.135C336.748 101.025 336.461 100.971 336.137 100.971C335.754 100.971 335.428 101.055 335.158 101.223C334.889 101.387 334.668 101.596 334.496 101.85C334.328 102.1 334.203 102.359 334.121 102.629C334.039 102.898 333.992 103.137 333.98 103.344ZM338.258 102.822L337.941 102.711C337.973 102.426 338.053 102.154 338.182 101.896C338.314 101.635 338.488 101.404 338.703 101.205C338.918 101.002 339.17 100.842 339.459 100.725C339.752 100.604 340.076 100.543 340.432 100.543C340.756 100.543 341.045 100.588 341.299 100.678C341.557 100.764 341.771 100.902 341.943 101.094C342.119 101.281 342.254 101.523 342.348 101.82C342.441 102.113 342.488 102.469 342.488 102.887V107H342.02V102.881C342.02 102.381 341.949 101.992 341.809 101.715C341.668 101.438 341.473 101.244 341.223 101.135C340.973 101.021 340.684 100.967 340.355 100.971C340.008 100.975 339.705 101.039 339.447 101.164C339.189 101.289 338.975 101.447 338.803 101.639C338.631 101.83 338.5 102.031 338.41 102.242C338.32 102.449 338.27 102.643 338.258 102.822Z" fill="black"/>
<path d="M397.688 86.6875L397.324 86.5703L397.729 82.4688H401.936V82.9141H398.139L397.811 86.1191C397.955 86.0059 398.182 85.8906 398.49 85.7734C398.799 85.6523 399.145 85.5918 399.527 85.5918C399.902 85.5918 400.242 85.6543 400.547 85.7793C400.855 85.9004 401.123 86.0781 401.35 86.3125C401.576 86.543 401.75 86.8242 401.871 87.1562C401.992 87.4844 402.053 87.8594 402.053 88.2812C402.053 88.6914 402.006 89.0684 401.912 89.4121C401.818 89.7559 401.672 90.0566 401.473 90.3145C401.277 90.5684 401.023 90.7656 400.711 90.9062C400.398 91.0469 400.025 91.1172 399.592 91.1172C399.256 91.1172 398.939 91.0703 398.643 90.9766C398.35 90.8789 398.088 90.7324 397.857 90.5371C397.631 90.3418 397.445 90.0957 397.301 89.7988C397.156 89.502 397.068 89.1543 397.037 88.7559H397.494C397.537 89.1738 397.645 89.5273 397.816 89.8164C397.992 90.1016 398.229 90.3184 398.525 90.4668C398.826 90.6152 399.182 90.6895 399.592 90.6895C399.924 90.6895 400.213 90.6387 400.459 90.5371C400.709 90.4316 400.916 90.2773 401.08 90.0742C401.248 89.8711 401.373 89.6211 401.455 89.3242C401.537 89.0234 401.578 88.6797 401.578 88.293C401.578 87.9688 401.533 87.6719 401.443 87.4023C401.354 87.1289 401.219 86.8906 401.039 86.6875C400.859 86.4805 400.639 86.3203 400.377 86.207C400.119 86.0938 399.822 86.0371 399.486 86.0371C399.053 86.0371 398.699 86.0957 398.426 86.2129C398.152 86.3301 397.906 86.4883 397.688 86.6875ZM403.465 90.6543C403.465 90.5488 403.502 90.459 403.576 90.3848C403.65 90.3066 403.744 90.2676 403.857 90.2676C403.975 90.2676 404.07 90.3047 404.145 90.3789C404.219 90.4531 404.256 90.5449 404.256 90.6543C404.256 90.7637 404.219 90.8555 404.145 90.9297C404.07 91.0039 403.975 91.041 403.857 91.041C403.744 91.041 403.65 91.0039 403.576 90.9297C403.502 90.8555 403.465 90.7637 403.465 90.6543ZM406.992 86.6875L406.629 86.5703L407.033 82.4688H411.24V82.9141H407.443L407.115 86.1191C407.26 86.0059 407.486 85.8906 407.795 85.7734C408.104 85.6523 408.449 85.5918 408.832 85.5918C409.207 85.5918 409.547 85.6543 409.852 85.7793C410.16 85.9004 410.428 86.0781 410.654 86.3125C410.881 86.543 411.055 86.8242 411.176 87.1562C411.297 87.4844 411.357 87.8594 411.357 88.2812C411.357 88.6914 411.311 89.0684 411.217 89.4121C411.123 89.7559 410.977 90.0566 410.777 90.3145C410.582 90.5684 410.328 90.7656 410.016 90.9062C409.703 91.0469 409.33 91.1172 408.896 91.1172C408.561 91.1172 408.244 91.0703 407.947 90.9766C407.654 90.8789 407.393 90.7324 407.162 90.5371C406.936 90.3418 406.75 90.0957 406.605 89.7988C406.461 89.502 406.373 89.1543 406.342 88.7559H406.799C406.842 89.1738 406.949 89.5273 407.121 89.8164C407.297 90.1016 407.533 90.3184 407.83 90.4668C408.131 90.6152 408.486 90.6895 408.896 90.6895C409.229 90.6895 409.518 90.6387 409.764 90.5371C410.014 90.4316 410.221 90.2773 410.385 90.0742C410.553 89.8711 410.678 89.6211 410.76 89.3242C410.842 89.0234 410.883 88.6797 410.883 88.293C410.883 87.9688 410.838 87.6719 410.748 87.4023C410.658 87.1289 410.523 86.8906 410.344 86.6875C410.164 86.4805 409.943 86.3203 409.682 86.207C409.424 86.0938 409.127 86.0371 408.791 86.0371C408.357 86.0371 408.004 86.0957 407.73 86.2129C407.457 86.3301 407.211 86.4883 406.992 86.6875ZM413.355 82V91H412.887V82H413.355ZM417.393 84.6602L414.311 87.5898L413.221 88.5801L413.109 88.1699L414.064 87.2148L416.771 84.6602H417.393ZM417.018 91L414.135 87.543L414.41 87.1562L417.592 91H417.018ZM419.057 86.002V91H418.588V84.6602H419.045L419.057 86.002ZM418.98 87.3438L418.746 87.0742C418.777 86.7383 418.855 86.418 418.98 86.1133C419.109 85.8086 419.279 85.5391 419.49 85.3047C419.705 85.0703 419.957 84.8848 420.246 84.748C420.539 84.6113 420.865 84.543 421.225 84.543C421.541 84.543 421.824 84.5859 422.074 84.6719C422.328 84.7539 422.543 84.8848 422.719 85.0645C422.895 85.2402 423.029 85.4707 423.123 85.7559C423.217 86.041 423.264 86.3828 423.264 86.7812V91H422.795V86.793C422.795 86.3164 422.725 85.9473 422.584 85.6855C422.443 85.4238 422.248 85.2402 421.998 85.1348C421.748 85.0254 421.461 84.9707 421.137 84.9707C420.754 84.9707 420.428 85.0547 420.158 85.2227C419.889 85.3867 419.668 85.5957 419.496 85.8496C419.328 86.0996 419.203 86.3594 419.121 86.6289C419.039 86.8984 418.992 87.1367 418.98 87.3438ZM423.258 86.8223L422.941 86.7109C422.973 86.4258 423.053 86.1543 423.182 85.8965C423.314 85.6348 423.488 85.4043 423.703 85.2051C423.918 85.002 424.17 84.8418 424.459 84.7246C424.752 84.6035 425.076 84.543 425.432 84.543C425.756 84.543 426.045 84.5879 426.299 84.6777C426.557 84.7637 426.771 84.9023 426.943 85.0938C427.119 85.2812 427.254 85.5234 427.348 85.8203C427.441 86.1133 427.488 86.4688 427.488 86.8867V91H427.02V86.8809C427.02 86.3809 426.949 85.9922 426.809 85.7148C426.668 85.4375 426.473 85.2441 426.223 85.1348C425.973 85.0215 425.684 84.9668 425.355 84.9707C425.008 84.9746 424.705 85.0391 424.447 85.1641C424.189 85.2891 423.975 85.4473 423.803 85.6387C423.631 85.8301 423.5 86.0312 423.41 86.2422C423.32 86.4492 423.27 86.6426 423.258 86.8223Z" fill="black"/>
<path d="M473.414 168.43H474.088C474.564 168.43 474.965 168.35 475.289 168.189C475.613 168.025 475.857 167.811 476.021 167.545C476.186 167.275 476.268 166.98 476.268 166.66C476.268 166.309 476.197 165.99 476.057 165.705C475.92 165.42 475.705 165.195 475.412 165.031C475.123 164.863 474.75 164.779 474.293 164.779C473.906 164.779 473.557 164.857 473.244 165.014C472.932 165.17 472.682 165.393 472.494 165.682C472.311 165.967 472.219 166.309 472.219 166.707H471.756C471.756 166.23 471.869 165.816 472.096 165.465C472.322 165.109 472.627 164.836 473.01 164.645C473.396 164.449 473.824 164.352 474.293 164.352C474.789 164.352 475.219 164.445 475.582 164.633C475.949 164.816 476.232 165.082 476.432 165.43C476.635 165.777 476.736 166.195 476.736 166.684C476.736 166.961 476.676 167.227 476.555 167.48C476.438 167.734 476.266 167.961 476.039 168.16C475.816 168.355 475.545 168.512 475.225 168.629C474.904 168.742 474.541 168.799 474.135 168.799H473.414V168.43ZM473.414 168.869V168.512H474.135C474.588 168.512 474.986 168.562 475.33 168.664C475.674 168.766 475.963 168.914 476.197 169.109C476.436 169.301 476.613 169.533 476.73 169.807C476.852 170.076 476.912 170.379 476.912 170.715C476.912 171.098 476.848 171.438 476.719 171.734C476.594 172.031 476.416 172.283 476.186 172.49C475.955 172.697 475.682 172.854 475.365 172.959C475.053 173.064 474.711 173.117 474.34 173.117C474.008 173.117 473.68 173.068 473.355 172.971C473.031 172.869 472.736 172.717 472.471 172.514C472.205 172.311 471.992 172.055 471.832 171.746C471.672 171.434 471.592 171.068 471.592 170.65H472.061C472.061 171.049 472.158 171.4 472.354 171.705C472.553 172.01 472.824 172.25 473.168 172.426C473.512 172.602 473.902 172.689 474.34 172.689C474.785 172.689 475.164 172.613 475.477 172.461C475.793 172.305 476.033 172.082 476.197 171.793C476.361 171.5 476.443 171.148 476.443 170.738C476.443 170.297 476.344 169.939 476.145 169.666C475.945 169.389 475.668 169.188 475.312 169.062C474.957 168.934 474.549 168.869 474.088 168.869H473.414ZM478.465 172.654C478.465 172.549 478.502 172.459 478.576 172.385C478.65 172.307 478.744 172.268 478.857 172.268C478.975 172.268 479.07 172.305 479.145 172.379C479.219 172.453 479.256 172.545 479.256 172.654C479.256 172.764 479.219 172.855 479.145 172.93C479.07 173.004 478.975 173.041 478.857 173.041C478.744 173.041 478.65 173.004 478.576 172.93C478.502 172.855 478.465 172.764 478.465 172.654ZM486.188 167.973V169.49C486.188 170.072 486.131 170.59 486.018 171.043C485.904 171.492 485.738 171.871 485.52 172.18C485.301 172.488 485.031 172.723 484.711 172.883C484.395 173.039 484.029 173.117 483.615 173.117C483.287 173.117 482.988 173.066 482.719 172.965C482.449 172.863 482.209 172.713 481.998 172.514C481.787 172.314 481.609 172.068 481.465 171.775C481.32 171.482 481.211 171.145 481.137 170.762C481.062 170.379 481.025 169.955 481.025 169.49V167.973C481.025 167.383 481.082 166.865 481.195 166.42C481.312 165.971 481.48 165.592 481.699 165.283C481.918 164.975 482.188 164.742 482.508 164.586C482.828 164.426 483.193 164.346 483.604 164.346C483.932 164.346 484.23 164.396 484.5 164.498C484.773 164.6 485.014 164.75 485.221 164.949C485.432 165.148 485.607 165.395 485.748 165.688C485.893 165.98 486.002 166.318 486.076 166.701C486.15 167.08 486.188 167.504 486.188 167.973ZM485.719 169.514V167.932C485.719 167.545 485.689 167.188 485.631 166.859C485.576 166.531 485.492 166.238 485.379 165.98C485.27 165.723 485.129 165.504 484.957 165.324C484.789 165.145 484.592 165.008 484.365 164.914C484.139 164.82 483.885 164.773 483.604 164.773C483.252 164.773 482.943 164.848 482.678 164.996C482.412 165.141 482.191 165.35 482.016 165.623C481.844 165.896 481.713 166.229 481.623 166.619C481.537 167.01 481.494 167.447 481.494 167.932V169.514C481.494 169.896 481.521 170.252 481.576 170.58C481.631 170.904 481.715 171.197 481.828 171.459C481.941 171.721 482.082 171.943 482.25 172.127C482.422 172.307 482.621 172.445 482.848 172.543C483.074 172.641 483.33 172.689 483.615 172.689C483.971 172.689 484.279 172.615 484.541 172.467C484.807 172.314 485.025 172.1 485.197 171.822C485.373 171.545 485.504 171.211 485.59 170.82C485.676 170.43 485.719 169.994 485.719 169.514ZM488.355 164V173H487.887V164H488.355ZM492.393 166.66L489.311 169.59L488.221 170.58L488.109 170.17L489.064 169.215L491.771 166.66H492.393ZM492.018 173L489.135 169.543L489.41 169.156L492.592 173H492.018ZM494.057 168.002V173H493.588V166.66H494.045L494.057 168.002ZM493.98 169.344L493.746 169.074C493.777 168.738 493.855 168.418 493.98 168.113C494.109 167.809 494.279 167.539 494.49 167.305C494.705 167.07 494.957 166.885 495.246 166.748C495.539 166.611 495.865 166.543 496.225 166.543C496.541 166.543 496.824 166.586 497.074 166.672C497.328 166.754 497.543 166.885 497.719 167.064C497.895 167.24 498.029 167.471 498.123 167.756C498.217 168.041 498.264 168.383 498.264 168.781V173H497.795V168.793C497.795 168.316 497.725 167.947 497.584 167.686C497.443 167.424 497.248 167.24 496.998 167.135C496.748 167.025 496.461 166.971 496.137 166.971C495.754 166.971 495.428 167.055 495.158 167.223C494.889 167.387 494.668 167.596 494.496 167.85C494.328 168.1 494.203 168.359 494.121 168.629C494.039 168.898 493.992 169.137 493.98 169.344ZM498.258 168.822L497.941 168.711C497.973 168.426 498.053 168.154 498.182 167.896C498.314 167.635 498.488 167.404 498.703 167.205C498.918 167.002 499.17 166.842 499.459 166.725C499.752 166.604 500.076 166.543 500.432 166.543C500.756 166.543 501.045 166.588 501.299 166.678C501.557 166.764 501.771 166.902 501.943 167.094C502.119 167.281 502.254 167.523 502.348 167.82C502.441 168.113 502.488 168.469 502.488 168.887V173H502.02V168.881C502.02 168.381 501.949 167.992 501.809 167.715C501.668 167.438 501.473 167.244 501.223 167.135C500.973 167.021 500.684 166.967 500.355 166.971C500.008 166.975 499.705 167.039 499.447 167.164C499.189 167.289 498.975 167.447 498.803 167.639C498.631 167.83 498.5 168.031 498.41 168.242C498.32 168.449 498.27 168.643 498.258 168.822Z" fill="black"/>
<path d="M523.422 95.3105V95.7383H517.445V95.4746L521.471 89.4688H521.881L521.113 90.7578L518.084 95.3105H523.422ZM522.004 89.4688V98H521.535V89.4688H522.004ZM524.465 97.6543C524.465 97.5488 524.502 97.459 524.576 97.3848C524.65 97.3066 524.744 97.2676 524.857 97.2676C524.975 97.2676 525.07 97.3047 525.145 97.3789C525.219 97.4531 525.256 97.5449 525.256 97.6543C525.256 97.7637 525.219 97.8555 525.145 97.9297C525.07 98.0039 524.975 98.041 524.857 98.041C524.744 98.041 524.65 98.0039 524.576 97.9297C524.502 97.8555 524.465 97.7637 524.465 97.6543ZM532.27 89.4688V89.75L528.555 98H528.074L531.754 89.8965H526.756V89.4688H532.27ZM534.355 89V98H533.887V89H534.355ZM538.393 91.6602L535.311 94.5898L534.221 95.5801L534.109 95.1699L535.064 94.2148L537.771 91.6602H538.393ZM538.018 98L535.135 94.543L535.41 94.1562L538.592 98H538.018ZM540.057 93.002V98H539.588V91.6602H540.045L540.057 93.002ZM539.98 94.3438L539.746 94.0742C539.777 93.7383 539.855 93.418 539.98 93.1133C540.109 92.8086 540.279 92.5391 540.49 92.3047C540.705 92.0703 540.957 91.8848 541.246 91.748C541.539 91.6113 541.865 91.543 542.225 91.543C542.541 91.543 542.824 91.5859 543.074 91.6719C543.328 91.7539 543.543 91.8848 543.719 92.0645C543.895 92.2402 544.029 92.4707 544.123 92.7559C544.217 93.041 544.264 93.3828 544.264 93.7812V98H543.795V93.793C543.795 93.3164 543.725 92.9473 543.584 92.6855C543.443 92.4238 543.248 92.2402 542.998 92.1348C542.748 92.0254 542.461 91.9707 542.137 91.9707C541.754 91.9707 541.428 92.0547 541.158 92.2227C540.889 92.3867 540.668 92.5957 540.496 92.8496C540.328 93.0996 540.203 93.3594 540.121 93.6289C540.039 93.8984 539.992 94.1367 539.98 94.3438ZM544.258 93.8223L543.941 93.7109C543.973 93.4258 544.053 93.1543 544.182 92.8965C544.314 92.6348 544.488 92.4043 544.703 92.2051C544.918 92.002 545.17 91.8418 545.459 91.7246C545.752 91.6035 546.076 91.543 546.432 91.543C546.756 91.543 547.045 91.5879 547.299 91.6777C547.557 91.7637 547.771 91.9023 547.943 92.0938C548.119 92.2812 548.254 92.5234 548.348 92.8203C548.441 93.1133 548.488 93.4688 548.488 93.8867V98H548.02V93.8809C548.02 93.3809 547.949 92.9922 547.809 92.7148C547.668 92.4375 547.473 92.2441 547.223 92.1348C546.973 92.0215 546.684 91.9668 546.355 91.9707C546.008 91.9746 545.705 92.0391 545.447 92.1641C545.189 92.2891 544.975 92.4473 544.803 92.6387C544.631 92.8301 544.5 93.0312 544.41 93.2422C544.32 93.4492 544.27 93.6426 544.258 93.8223Z" fill="black"/>
<path d="M565.422 127.311V127.738H559.445V127.475L563.471 121.469H563.881L563.113 122.758L560.084 127.311H565.422ZM564.004 121.469V130H563.535V121.469H564.004ZM566.465 129.654C566.465 129.549 566.502 129.459 566.576 129.385C566.65 129.307 566.744 129.268 566.857 129.268C566.975 129.268 567.07 129.305 567.145 129.379C567.219 129.453 567.256 129.545 567.256 129.654C567.256 129.764 567.219 129.855 567.145 129.93C567.07 130.004 566.975 130.041 566.857 130.041C566.744 130.041 566.65 130.004 566.576 129.93C566.502 129.855 566.465 129.764 566.465 129.654ZM574.27 121.469V121.75L570.555 130H570.074L573.754 121.896H568.756V121.469H574.27ZM576.355 121V130H575.887V121H576.355ZM580.393 123.66L577.311 126.59L576.221 127.58L576.109 127.17L577.064 126.215L579.771 123.66H580.393ZM580.018 130L577.135 126.543L577.41 126.156L580.592 130H580.018ZM582.057 125.002V130H581.588V123.66H582.045L582.057 125.002ZM581.98 126.344L581.746 126.074C581.777 125.738 581.855 125.418 581.98 125.113C582.109 124.809 582.279 124.539 582.49 124.305C582.705 124.07 582.957 123.885 583.246 123.748C583.539 123.611 583.865 123.543 584.225 123.543C584.541 123.543 584.824 123.586 585.074 123.672C585.328 123.754 585.543 123.885 585.719 124.064C585.895 124.24 586.029 124.471 586.123 124.756C586.217 125.041 586.264 125.383 586.264 125.781V130H585.795V125.793C585.795 125.316 585.725 124.947 585.584 124.686C585.443 124.424 585.248 124.24 584.998 124.135C584.748 124.025 584.461 123.971 584.137 123.971C583.754 123.971 583.428 124.055 583.158 124.223C582.889 124.387 582.668 124.596 582.496 124.85C582.328 125.1 582.203 125.359 582.121 125.629C582.039 125.898 581.992 126.137 581.98 126.344ZM586.258 125.822L585.941 125.711C585.973 125.426 586.053 125.154 586.182 124.896C586.314 124.635 586.488 124.404 586.703 124.205C586.918 124.002 587.17 123.842 587.459 123.725C587.752 123.604 588.076 123.543 588.432 123.543C588.756 123.543 589.045 123.588 589.299 123.678C589.557 123.764 589.771 123.902 589.943 124.094C590.119 124.281 590.254 124.523 590.348 124.82C590.441 125.113 590.488 125.469 590.488 125.887V130H590.02V125.881C590.02 125.381 589.949 124.992 589.809 124.715C589.668 124.438 589.473 124.244 589.223 124.135C588.973 124.021 588.684 123.967 588.355 123.971C588.008 123.975 587.705 124.039 587.447 124.164C587.189 124.289 586.975 124.447 586.803 124.639C586.631 124.83 586.5 125.031 586.41 125.242C586.32 125.449 586.27 125.643 586.258 125.822Z" fill="black"/>
<path d="M0 308H13V321H0V308Z" fill="black"/>
<path d="M6.5 192L75 118L137.5 162L225 171L328 118L412.5 102.5L486.5 154.5L532.5 110H575.5L594 50" stroke="black"/>
<circle cx="75.5" cy="118.5" r="5.5" fill="black"/>
<circle cx="136.5" cy="161.5" r="5.5" fill="black"/>
<circle cx="223.5" cy="172.5" r="5.5" fill="black"/>
<circle cx="326.5" cy="118.5" r="5.5" fill="black"/>
<circle cx="411.5" cy="102.5" r="5.5" fill="black"/>
<circle cx="486.5" cy="153.5" r="5.5" fill="black"/>
<circle cx="532.5" cy="110.5" r="5.5" fill="black"/>
<circle cx="574.5" cy="108.5" r="5.5" fill="black"/>
</svg>
