<svg width="474" height="169" viewBox="0 0 474 169" fill="none" xmlns="http://www.w3.org/2000/svg">
<path d="M108.5 27.5C94.5 23.9 70.3334 26 60 27.5C46.0001 86 55.1667 120.667 60 142C82.4 145.6 102 143.5 109 142C110.667 134 116 111.5 115.5 84.5C115.003 57.6778 111.333 35.3333 108.5 27.5Z" fill="#FF0000"/>
<path d="M27.1204 60.6204C23.5204 74.6204 25.6204 98.7871 27.1204 109.12C86.1204 121.62 120.287 113.954 141.62 109.12C145.22 86.7204 143.12 67.1204 141.62 60.1204C133.62 58.4537 111.12 53.1204 84.1204 53.6204C57.2982 54.1171 34.9538 57.7871 27.1204 60.6204Z" fill="#FF0000"/>
<circle cx="84.5" cy="84.5" r="84" stroke="black"/>
<mask id="mask0_19_3" style="mask-type:alpha" maskUnits="userSpaceOnUse" x="0" y="0" width="169" height="169">
<circle cx="84.5" cy="84.5" r="84.5" fill="#C4C4C4"/>
</mask>
<g mask="url(#mask0_19_3)">
<path d="M84.5 1L84 169" stroke="black"/>
<path d="M120 -1C120 -1 143.5 28 143.5 87C143.5 128.552 120 168.5 120 168.5" stroke="black"/>
<path d="M120.5 -1C120.5 -1 163.5 30 163.5 89C163.5 130.552 129 170.5 129 170.5" stroke="black"/>
<path d="M96 -1C96 -1 116.155 23.5 115.5 88C114.947 142.5 96 177.5 96 177.5" stroke="black"/>
<path d="M48.5 -1C48.5 -1 25 28 25 87C25 128.552 48.5 168.5 48.5 168.5" stroke="black"/>
<path d="M46 2C46 2 5 30 5 89C5 130.552 41.5 171 41.5 171" stroke="black"/>
<path d="M72.5 -1C72.5 -1 52.345 23.5 53 88C53.5534 142.5 72.5 177.5 72.5 177.5" stroke="black"/>
</g>
<mask id="mask1_19_3" style="mask-type:alpha" maskUnits="userSpaceOnUse" x="0" y="0" width="169" height="169">
<circle cx="84.5" cy="84.5" r="84.5" transform="rotate(-90 84.5 84.5)" fill="#C4C4C4"/>
</mask>
<g mask="url(#mask1_19_3)">
<path d="M1 84.5L169 85" stroke="black"/>
<path d="M-1 49C-1 49 28 25.5 87 25.5C128.552 25.5 168.5 49 168.5 49" stroke="black"/>
<path d="M-1 48.5C-1 48.5 30 5.5 89 5.5C130.552 5.49999 170.5 40 170.5 40" stroke="black"/>
<path d="M-1 73C-1 73 23.5 52.845 88 53.5C142.5 54.0534 177.5 73 177.5 73" stroke="black"/>
<path d="M-1 120.5C-1 120.5 28 144 87 144C128.552 144 168.5 120.5 168.5 120.5" stroke="black"/>
<path d="M2 123C2 123 30 164 89 164C130.552 164 171 127.5 171 127.5" stroke="black"/>
<path d="M-1 96.5C-1 96.5 23.5 116.655 88 116C142.5 115.447 177.5 96.5 177.5 96.5" stroke="black"/>
</g>
<path d="M245.188 51.4062V53.75H215.719V51.4062H245.188ZM216.594 30.5V76H214.062V30.5H216.594ZM247 30.5V76H244.469V30.5H247ZM287.062 73.6875V76H260.531V73.6875H287.062ZM261.656 30.5V76H259.125V30.5H261.656ZM283.875 51.4062V53.75H260.531V51.4062H283.875ZM287 30.5V32.8125H260.531V30.5H287ZM309.375 32.4375L293.188 76H290.5L307.594 30.5H309.688L309.375 32.4375ZM324.688 76L308.531 32.4375L308.219 30.5H310.281L327.406 76H324.688ZM320.688 60.4062V62.75H297.344V60.4062H320.688ZM360.062 73.6875V76H335.938V73.6875H360.062ZM337.062 30.5V76H334.5V30.5H337.062ZM373.5 30.5V76H371V30.5H373.5ZM389.688 30.5V32.8125H354.812V30.5H389.688ZM428.562 51.4062V53.75H399.094V51.4062H428.562ZM399.969 30.5V76H397.438V30.5H399.969ZM430.375 30.5V76H427.844V30.5H430.375ZM439.625 30.5L454.625 56.4375L469.75 30.5H472.75L455.875 58.7812V76H453.344V58.7812L436.469 30.5H439.625Z" fill="black"/>
<path d="M246.438 113.969V129.906C245.938 130.615 245.031 131.417 243.719 132.312C242.427 133.208 240.708 133.99 238.562 134.656C236.417 135.302 233.823 135.625 230.781 135.625C228.156 135.625 225.75 135.146 223.562 134.188C221.396 133.229 219.521 131.854 217.938 130.062C216.354 128.25 215.125 126.104 214.25 123.625C213.396 121.125 212.969 118.354 212.969 115.312V108.625C212.969 105.646 213.375 102.958 214.188 100.562C215.021 98.1458 216.198 96.0625 217.719 94.3125C219.24 92.5625 221.052 91.2188 223.156 90.2812C225.281 89.3438 227.635 88.875 230.219 88.875C233.552 88.875 236.354 89.4583 238.625 90.625C240.917 91.7708 242.708 93.3333 244 95.3125C245.292 97.2917 246.083 99.5208 246.375 102H243.844C243.531 100.083 242.875 98.3125 241.875 96.6875C240.896 95.0417 239.458 93.7188 237.562 92.7188C235.667 91.6979 233.219 91.1875 230.219 91.1875C227.948 91.1875 225.906 91.6146 224.094 92.4688C222.281 93.3021 220.729 94.4896 219.438 96.0312C218.167 97.5729 217.188 99.4062 216.5 101.531C215.833 103.656 215.5 106 215.5 108.562V115.312C215.5 117.979 215.854 120.417 216.562 122.625C217.292 124.812 218.323 126.708 219.656 128.312C221.01 129.917 222.625 131.156 224.5 132.031C226.396 132.885 228.49 133.312 230.781 133.312C233.198 133.312 235.302 133.073 237.094 132.594C238.906 132.115 240.375 131.542 241.5 130.875C242.646 130.188 243.448 129.552 243.906 128.969V116.312H230.656V113.969H246.438ZM285.875 132.688V135H259.344V132.688H285.875ZM260.469 89.5V135H257.938V89.5H260.469ZM282.688 110.406V112.75H259.344V110.406H282.688ZM285.812 89.5V91.8125H259.344V89.5H285.812ZM327.125 109.219V115.281C327.125 118.323 326.719 121.094 325.906 123.594C325.115 126.094 323.958 128.24 322.438 130.031C320.917 131.823 319.094 133.208 316.969 134.188C314.844 135.146 312.448 135.625 309.781 135.625C307.177 135.625 304.802 135.146 302.656 134.188C300.51 133.208 298.667 131.823 297.125 130.031C295.604 128.24 294.427 126.094 293.594 123.594C292.781 121.094 292.375 118.323 292.375 115.281V109.219C292.375 106.156 292.781 103.385 293.594 100.906C294.427 98.4062 295.604 96.2604 297.125 94.4688C298.646 92.6771 300.469 91.3021 302.594 90.3438C304.74 89.3646 307.115 88.875 309.719 88.875C312.385 88.875 314.781 89.3646 316.906 90.3438C319.031 91.3021 320.854 92.6771 322.375 94.4688C323.917 96.2604 325.094 98.4062 325.906 100.906C326.719 103.385 327.125 106.156 327.125 109.219ZM324.625 115.281V109.156C324.625 106.49 324.292 104.062 323.625 101.875C322.958 99.6667 321.979 97.7708 320.688 96.1875C319.417 94.6042 317.865 93.3854 316.031 92.5312C314.198 91.6562 312.094 91.2188 309.719 91.2188C307.406 91.2188 305.333 91.6562 303.5 92.5312C301.667 93.3854 300.115 94.6042 298.844 96.1875C297.573 97.7708 296.604 99.6667 295.938 101.875C295.271 104.062 294.938 106.49 294.938 109.156V115.281C294.938 117.969 295.271 120.417 295.938 122.625C296.625 124.833 297.604 126.729 298.875 128.312C300.146 129.896 301.698 131.125 303.531 132C305.385 132.854 307.469 133.281 309.781 133.281C312.156 133.281 314.26 132.854 316.094 132C317.927 131.125 319.479 129.896 320.75 128.312C322.021 126.729 322.979 124.833 323.625 122.625C324.292 120.417 324.625 117.969 324.625 115.281Z" fill="black"/>
<path d="M359 131L359 95" stroke="#FF0000" stroke-width="10"/>
<path d="M377 113L341 113" stroke="#FF0000" stroke-width="10"/>
<path d="M298.847 130.807C306.364 137.943 319.5 136 324.5 124C323.5 123.833 321.4 123.1 321 121.5H318C316.667 121 315 120 313.5 112.5C313.327 114.147 312.901 116.73 312.195 119C307.5 119 305.5 104 305.5 104C305.5 104 303.776 113.095 301.5 116C299 118 296.4 120.3 294 115.5L294 119C293.885 124.276 295.232 127.376 298.847 130.807Z" fill="black"/>
</svg>
