<svg width="266" height="134" viewBox="0 0 266 134" fill="none" xmlns="http://www.w3.org/2000/svg">
<path d="M37.1875 34.4062V36.75H7.71875V34.4062H37.1875ZM8.59375 13.5V59H6.0625V13.5H8.59375ZM39 13.5V59H36.4688V13.5H39ZM79.0625 56.6875V59H52.5312V56.6875H79.0625ZM53.6562 13.5V59H51.125V13.5H53.6562ZM75.875 34.4062V36.75H52.5312V34.4062H75.875ZM79 13.5V15.8125H52.5312V13.5H79ZM101.375 15.4375L85.1875 59H82.5L99.5938 13.5H101.688L101.375 15.4375ZM116.688 59L100.531 15.4375L100.219 13.5H102.281L119.406 59H116.688ZM112.688 43.4062V45.75H89.3438V43.4062H112.688ZM152.062 56.6875V59H127.938V56.6875H152.062ZM129.062 13.5V59H126.5V13.5H129.062ZM165.5 13.5V59H163V13.5H165.5ZM181.688 13.5V15.8125H146.812V13.5H181.688ZM220.562 34.4062V36.75H191.094V34.4062H220.562ZM191.969 13.5V59H189.438V13.5H191.969ZM222.375 13.5V59H219.844V13.5H222.375ZM231.625 13.5L246.625 39.4375L261.75 13.5H264.75L247.875 41.7812V59H245.344V41.7812L228.469 13.5H231.625Z" fill="black"/>
<path d="M38.4375 96.9688V112.906C37.9375 113.615 37.0312 114.417 35.7188 115.312C34.4271 116.208 32.7083 116.99 30.5625 117.656C28.4167 118.302 25.8229 118.625 22.7812 118.625C20.1562 118.625 17.75 118.146 15.5625 117.188C13.3958 116.229 11.5208 114.854 9.9375 113.062C8.35417 111.25 7.125 109.104 6.25 106.625C5.39583 104.125 4.96875 101.354 4.96875 98.3125V91.625C4.96875 88.6458 5.375 85.9583 6.1875 83.5625C7.02083 81.1458 8.19792 79.0625 9.71875 77.3125C11.2396 75.5625 13.0521 74.2188 15.1562 73.2812C17.2812 72.3438 19.6354 71.875 22.2188 71.875C25.5521 71.875 28.3542 72.4583 30.625 73.625C32.9167 74.7708 34.7083 76.3333 36 78.3125C37.2917 80.2917 38.0833 82.5208 38.375 85H35.8438C35.5312 83.0833 34.875 81.3125 33.875 79.6875C32.8958 78.0417 31.4583 76.7188 29.5625 75.7188C27.6667 74.6979 25.2188 74.1875 22.2188 74.1875C19.9479 74.1875 17.9062 74.6146 16.0938 75.4688C14.2812 76.3021 12.7292 77.4896 11.4375 79.0312C10.1667 80.5729 9.1875 82.4062 8.5 84.5312C7.83333 86.6562 7.5 89 7.5 91.5625V98.3125C7.5 100.979 7.85417 103.417 8.5625 105.625C9.29167 107.812 10.3229 109.708 11.6562 111.312C13.0104 112.917 14.625 114.156 16.5 115.031C18.3958 115.885 20.4896 116.312 22.7812 116.312C25.1979 116.312 27.3021 116.073 29.0938 115.594C30.9062 115.115 32.375 114.542 33.5 113.875C34.6458 113.188 35.4479 112.552 35.9062 111.969V99.3125H22.6562V96.9688H38.4375ZM77.875 115.688V118H51.3438V115.688H77.875ZM52.4688 72.5V118H49.9375V72.5H52.4688ZM74.6875 93.4062V95.75H51.3438V93.4062H74.6875ZM77.8125 72.5V74.8125H51.3438V72.5H77.8125ZM119.125 92.2188V98.2812C119.125 101.323 118.719 104.094 117.906 106.594C117.115 109.094 115.958 111.24 114.438 113.031C112.917 114.823 111.094 116.208 108.969 117.188C106.844 118.146 104.448 118.625 101.781 118.625C99.1771 118.625 96.8021 118.146 94.6562 117.188C92.5104 116.208 90.6667 114.823 89.125 113.031C87.6042 111.24 86.4271 109.094 85.5938 106.594C84.7812 104.094 84.375 101.323 84.375 98.2812V92.2188C84.375 89.1562 84.7812 86.3854 85.5938 83.9062C86.4271 81.4062 87.6042 79.2604 89.125 77.4688C90.6458 75.6771 92.4688 74.3021 94.5938 73.3438C96.7396 72.3646 99.1146 71.875 101.719 71.875C104.385 71.875 106.781 72.3646 108.906 73.3438C111.031 74.3021 112.854 75.6771 114.375 77.4688C115.917 79.2604 117.094 81.4062 117.906 83.9062C118.719 86.3854 119.125 89.1562 119.125 92.2188ZM116.625 98.2812V92.1562C116.625 89.4896 116.292 87.0625 115.625 84.875C114.958 82.6667 113.979 80.7708 112.688 79.1875C111.417 77.6042 109.865 76.3854 108.031 75.5312C106.198 74.6562 104.094 74.2188 101.719 74.2188C99.4062 74.2188 97.3333 74.6562 95.5 75.5312C93.6667 76.3854 92.1146 77.6042 90.8438 79.1875C89.5729 80.7708 88.6042 82.6667 87.9375 84.875C87.2708 87.0625 86.9375 89.4896 86.9375 92.1562V98.2812C86.9375 100.969 87.2708 103.417 87.9375 105.625C88.625 107.833 89.6042 109.729 90.875 111.312C92.1458 112.896 93.6979 114.125 95.5312 115C97.3854 115.854 99.4688 116.281 101.781 116.281C104.156 116.281 106.26 115.854 108.094 115C109.927 114.125 111.479 112.896 112.75 111.312C114.021 109.729 114.979 107.833 115.625 105.625C116.292 103.417 116.625 100.969 116.625 98.2812Z" fill="black"/>
<path d="M151 114L151 78" stroke="#FF0000" stroke-width="10"/>
<path d="M169 96L133 96" stroke="#FF0000" stroke-width="10"/>
<path d="M90.8472 113.807C98.3643 120.943 111.5 119 116.5 107C115.5 106.833 113.4 106.1 113 104.5H110C108.667 104 107 103 105.5 95.5C105.327 97.1465 104.901 99.7302 104.195 102C99.5 102 97.5 87 97.5 87C97.5 87 95.7763 96.0952 93.5 99C91 101 88.4002 103.3 86.0001 98.5L86.0001 102C85.8846 107.276 87.2322 110.376 90.8472 113.807Z" fill="black"/>
</svg>
