<svg width="346" height="354" viewBox="0 0 346 354" fill="none" xmlns="http://www.w3.org/2000/svg">
<path d="M135.987 76.9601C101.227 78.096 95.566 98.4483 97.0806 108.482C96.4293 117.854 93.6729 139.437 91.969 151.932C90.265 164.428 90.549 181.751 105.316 184.307C120.084 186.863 125.195 177.775 128.887 170.675C131.841 164.996 132.958 138.585 133.147 126.09H195.34L172.621 132.905C168.077 152.443 125.858 227.188 105.316 262.119C88.5611 262.119 42.2715 246.783 29.7761 242.524C17.2808 238.264 5.92131 242.524 1.94551 255.303C-2.03028 268.082 7.34124 278.59 15.0088 282.282C22.6765 285.973 71.8059 303.865 97.0806 313.52C122.355 323.176 132.579 313.236 142.234 301.877C149.959 292.789 175.366 261.361 187.104 246.783L236.802 262.119C251.19 284.175 281.898 331.014 289.623 341.919C299.278 355.55 309.786 354.13 316.601 351.574C323.417 349.018 329.949 338.511 323.133 324.311C316.317 310.112 291.327 266.662 279.967 242.524C268.608 218.385 264.916 217.533 258.1 214.693C252.648 212.421 232.352 204.28 222.886 200.494C234.246 181.41 242.387 151.838 245.037 139.437C245.037 151.024 240.115 169.823 237.653 177.775C242.765 194.53 251.285 193.11 260.656 193.678C270.028 194.246 303.538 192.826 321.997 190.838C340.456 188.85 345 182.035 345 170.391C345 158.748 337.332 153.636 327.393 150.796C317.453 147.956 284.227 146.821 275.424 146.537C266.62 146.253 252.705 110.754 245.037 94.2832C237.369 77.8121 222.886 74.6882 208.687 74.4042C188.467 76.4489 151.795 76.9601 135.987 76.9601Z" fill="black" stroke="black" stroke-width="0.335573"/>
<circle cx="255.545" cy="41.1779" r="41.1779" fill="black"/>
</svg>
