<svg width="121" height="63" viewBox="0 0 121 63" fill="none" xmlns="http://www.w3.org/2000/svg">
<path d="M55.2484 42.8558L50.1416 27.7246C49.8589 26.8868 50.3108 25.9788 51.1496 25.6991C51.9691 25.426 52.855 25.426 53.6744 25.6991L54.1163 25.8464C54.7913 26.0714 55.3119 26.6151 55.5073 27.2993L57.9779 35.9463L60.5526 27.628C60.831 26.7286 61.5006 26.0028 62.3749 25.6531C62.984 25.4095 63.6544 25.364 64.2909 25.5231L64.3381 25.5349C65.4311 25.8082 66.3066 26.6246 66.6554 27.6959L69.3416 35.9463L72.2904 27.0997C72.4786 26.5351 72.9144 26.0874 73.4737 25.884L73.9098 25.7255C74.7041 25.4366 75.5747 25.4366 76.369 25.7255C77.1037 25.9927 77.4908 26.7975 77.2408 27.5383L72.0645 42.8752C71.6846 44.001 70.6289 44.7589 69.4407 44.7589C68.269 44.7589 67.2241 44.0215 66.8315 42.9174L63.7757 34.3229L60.5166 42.9498C60.1054 44.0385 59.0631 44.7589 57.8993 44.7589C56.6989 44.7589 55.6323 43.9932 55.2484 42.8558Z" fill="black"/>
<rect y="4.29575" width="6.11865" height="12.0928" rx="3.05932" transform="rotate(-44.5937 0 4.29575)" fill="#6302FF"/>
<rect y="4.29575" width="6.11865" height="12.0928" rx="3.05932" transform="rotate(-44.5937 0 4.29575)" fill="#6302FF"/>
<rect width="6.11865" height="12.0928" rx="3.05932" transform="matrix(0.712103 0.702075 0.702075 -0.712103 0 58.7043)" fill="#6302FF"/>
<rect width="6.11865" height="12.0928" rx="3.05932" transform="matrix(-0.712103 -0.702075 -0.702075 0.712103 62.0125 4.29575)" fill="#6302FF"/>
<rect x="62.0125" y="58.7043" width="6.11865" height="12.0928" rx="3.05932" transform="rotate(135.406 62.0125 58.7043)" fill="#6302FF"/>
<rect x="16.6976" y="25.0464" width="5.56588" height="19.9444" rx="2.78294" fill="#6302FF"/>
<rect x="39.425" y="15.77" width="5.56588" height="29.2209" rx="2.78294" fill="#6302FF"/>
<rect x="93.2285" y="25.0464" width="5.56588" height="19.9444" rx="2.78294" fill="black"/>
<circle cx="19.4806" cy="20.872" r="3.24676" fill="#6302FF"/>
<path fill-rule="evenodd" clip-rule="evenodd" d="M34.5548 44.9908C40.0623 44.9908 44.527 40.5261 44.527 35.0186C44.527 29.5112 40.0623 25.0464 34.5548 25.0464C29.0473 25.0464 24.5826 29.5112 24.5826 35.0186C24.5826 40.5261 29.0473 44.9908 34.5548 44.9908ZM34.7867 40.8164C37.3484 40.8164 39.425 38.3245 39.425 35.2506C39.425 32.1766 37.3484 29.6847 34.7867 29.6847C32.2251 29.6847 30.1485 32.1766 30.1485 35.2506C30.1485 38.3245 32.2251 40.8164 34.7867 40.8164Z" fill="#6302FF"/>
<path fill-rule="evenodd" clip-rule="evenodd" d="M88.3583 44.9908C93.8658 44.9908 98.3305 40.5261 98.3305 35.0186C98.3305 29.5112 93.8658 25.0464 88.3583 25.0464C82.8508 25.0464 78.3861 29.5112 78.3861 35.0186C78.3861 40.5261 82.8508 44.9908 88.3583 44.9908ZM88.5902 40.8164C91.1519 40.8164 93.2285 38.3245 93.2285 35.2506C93.2285 32.1766 91.1519 29.6847 88.5902 29.6847C86.0286 29.6847 83.952 32.1766 83.952 35.2506C83.952 38.3245 86.0286 40.8164 88.5902 40.8164Z" fill="black"/>
<path d="M107.607 36.9735V18.1352C107.607 16.8651 106.516 15.8691 105.252 15.9841C105.121 15.996 104.991 15.996 104.86 15.9841C103.596 15.8691 102.505 16.8651 102.505 18.1352V38.0494C102.505 39.6387 102.853 41.2286 103.776 42.5226C104.439 43.4525 105.301 44.4603 106.216 44.9909C106.783 45.3202 107.484 45.2843 108.071 44.9909C108.071 44.9909 109.714 43.9674 110.158 42.9036C110.354 42.4337 110.198 41.9006 109.871 41.5101L108.783 40.2099C108.023 39.3025 107.607 38.1569 107.607 36.9735Z" fill="black"/>
<path d="M117.347 36.9735V18.1352C117.347 16.8651 116.257 15.8691 114.992 15.9841C114.862 15.996 114.731 15.996 114.601 15.9841C113.336 15.8691 112.245 16.8651 112.245 18.1352V38.0494C112.245 39.6387 112.593 41.2286 113.516 42.5226C114.179 43.4525 115.042 44.4603 115.956 44.9909C116.523 45.3202 117.224 45.2843 117.811 44.9909C117.811 44.9909 119.454 43.9674 119.898 42.9036C120.095 42.4337 119.938 41.9006 119.611 41.5101L118.523 40.2099C117.763 39.3025 117.347 38.1569 117.347 36.9735Z" fill="black"/>
</svg>
